<svg width="102" height="85" viewBox="0 0 102 85" fill="none" xmlns="http://www.w3.org/2000/svg">
<path d="M93.3041 0.750404C93.3041 0.750404 102.74 -2.92888 101.953 6.00653C101.691 9.68587 99.3325 22.5634 97.4977 36.4922L91.2072 77.7528C91.2072 77.7528 90.6832 83.7973 85.9652 84.8486C81.2472 85.8997 74.1706 81.1694 72.8599 80.118C71.8114 79.3297 53.2023 67.5033 46.6495 61.7216C44.8147 60.1447 42.7179 56.991 46.9115 53.3117L74.4326 27.0312C77.5779 23.8775 80.7231 16.5189 67.6178 25.4543L30.9233 50.421C30.9233 50.421 26.7296 53.049 18.8666 50.6838L1.82974 45.4276C1.82974 45.4276 -4.46078 41.4856 6.28551 37.5433C32.496 25.1913 64.7348 12.5766 93.3041 0.750404Z" fill="#FFFDD0"/>
</svg>
