<svg width="112" height="66" viewBox="0 0 112 66" fill="none" xmlns="http://www.w3.org/2000/svg">
<path d="M67.8194 31.7471C65.7714 30.9669 65.7714 27.9873 65.6444 25.9123C65.1324 18.5214 67.6924 7.2379 64.6205 2.44064C62.4455 -0.414471 51.9476 -0.153029 45.5497 0.237059C43.7557 0.498501 41.5807 0.884443 40.0448 1.66462C38.5088 2.4448 36.9728 3.73955 36.9728 4.90567C36.9728 6.59052 40.8148 6.33322 42.2197 8.53681C43.7557 10.8732 43.7557 15.9277 43.7557 20.0776C43.7557 24.8749 42.9857 31.2325 41.0688 31.4898C38.1238 31.6184 36.4608 28.6346 34.9248 26.4311C31.8529 22.1525 28.7809 16.8324 26.4749 11.6451C25.3239 8.92275 24.6809 5.93899 23.0179 4.77287C20.4579 2.95523 15.85 2.82658 11.369 2.95523C7.27308 3.08388 1.38311 2.56514 0.232145 5.03017C-0.664868 7.75248 1.25613 10.3462 2.28012 12.5539C7.52703 24.0947 13.159 34.2121 20.0729 43.8066C26.4749 52.7537 32.4877 59.8874 44.2636 63.6471C47.5936 64.6846 62.1834 67.6684 65.1284 63.6471C66.1523 62.0909 65.8984 58.5884 66.4104 55.9948C66.9224 53.4011 67.5613 50.8074 69.9943 50.6788C72.0423 50.5501 73.1933 52.3636 74.4753 53.6625C75.8843 55.0901 77.0353 56.2562 78.0593 57.5551C80.4923 60.0201 83.0522 63.3898 86.1242 64.6888C90.3471 66.5064 96.8761 65.9877 103.02 65.7262C108.013 65.5976 111.597 64.5601 111.982 61.5764C112.24 59.24 109.676 55.8703 108.14 53.924C104.298 49.1267 102.508 47.6992 98.154 43.2879C96.233 41.3416 93.8 39.2666 93.8 36.9344C93.673 35.5068 94.824 34.2121 95.848 32.7845C100.329 26.041 104.81 21.2437 108.906 14.2387C110.057 12.1638 112.748 7.36655 111.724 5.03017C110.573 2.4365 104.171 3.21252 100.202 3.21252C95.082 3.21252 88.4261 2.82243 87.1441 3.8599C84.7111 5.54475 83.6871 8.27122 82.5361 10.8649C79.9762 16.8324 76.5192 22.9244 72.9352 27.4644C71.6532 29.0206 69.2243 32.2616 67.8153 31.7429L67.8194 31.7471Z" fill="#FFFDD0"/>
</svg>
